# xmcd
#
# Track frame offsets:
# 150
# 14798
# 30990
# 51442
# 69907
# 90555
# 109561
# 129491
# 146520
# 165688
# 186241
# 210390
# 227515
# 245008
# 262421
#
# Disc length: 3664 seconds
#
# Revision: 0
# Processed by: cddbd v1.4b42PL1 Copyright (c) Steve Scherf et al.
# Submitted via: Audion 2.5.0 (http://www.panic.com/audion/)
#
DISCID=d20e4e0f
DTITLE=random - RB
DYEAR=1900
DGENRE=
TTITLE0=allicia keys
TTITLE1=m
TTITLE2=m
TTITLE3=m
TTITLE4=m
TTITLE5=m
TTITLE6=m
TTITLE7=m
TTITLE8=m
TTITLE9=m
TTITLE10=m
TTITLE11=m
TTITLE12=m
TTITLE13=m
TTITLE14=m
EXTD=
EXTT0=
EXTT1=
EXTT2=
EXTT3=
EXTT4=
EXTT5=
EXTT6=
EXTT7=
EXTT8=
EXTT9=
EXTT10=
EXTT11=
EXTT12=
EXTT13=
EXTT14=
PLAYORDER=
